<?xml version="1.0" standalone="no"?>
<!DOCTYPE svg PUBLIC "-//W3C//DTD SVG 20010904//EN"
 "http://www.w3.org/TR/2001/REC-SVG-20010904/DTD/svg10.dtd">
<svg version="1.0" xmlns="http://www.w3.org/2000/svg"
 width="512px" height="512px" viewBox="0 0 64.000000 64.000000"
 preserveAspectRatio="xMidYMid meet">

<g transform="translate(0.000000,64.000000) scale(0.100000,-0.100000)"
fill="#000000" stroke="none">
<path d="M98 584 c-52 -28 -58 -55 -58 -264 0 -285 -5 -280 280 -280 285 0
280 -5 280 280 0 285 5 280 -282 280 -151 -1 -199 -4 -220 -16z m453 -33 l29
-29 0 -202 0 -202 -29 -29 -29 -29 -202 0 -202 0 -29 29 -29 29 0 202 0 202
29 29 29 29 202 0 202 0 29 -29z"/>
<path d="M180 491 c0 -5 9 -11 20 -14 19 -5 20 -14 20 -135 0 -122 -1 -131
-20 -137 -51 -16 -10 -25 114 -25 l133 0 7 37 c8 52 8 63 -3 63 -5 0 -15 -16
-21 -35 -13 -40 -32 -48 -106 -43 l-49 3 -3 63 -3 62 41 0 c33 0 42 -4 52 -25
18 -41 28 -29 28 35 0 64 -10 76 -28 35 -10 -21 -19 -25 -52 -25 l-40 0 0 65
0 66 68 -3 c66 -3 67 -3 77 -35 12 -41 21 -42 29 -2 12 61 17 59 -129 59 -74
0 -135 -4 -135 -9z"/>
<path d="M110 100 c0 -11 5 -20 10 -20 6 0 10 9 10 20 0 11 -4 20 -10 20 -5 0
-10 -9 -10 -20z"/>
<path d="M160 100 c0 -11 5 -20 10 -20 6 0 10 9 10 20 0 11 -4 20 -10 20 -5 0
-10 -9 -10 -20z"/>
<path d="M210 100 c0 -11 5 -20 10 -20 6 0 10 9 10 20 0 11 -4 20 -10 20 -5 0
-10 -9 -10 -20z"/>
<path d="M260 100 c0 -11 5 -20 10 -20 6 0 10 9 10 20 0 11 -4 20 -10 20 -5 0
-10 -9 -10 -20z"/>
<path d="M310 100 c0 -11 5 -20 10 -20 6 0 10 9 10 20 0 11 -4 20 -10 20 -5 0
-10 -9 -10 -20z"/>
<path d="M360 100 c0 -11 5 -20 10 -20 6 0 10 9 10 20 0 11 -4 20 -10 20 -5 0
-10 -9 -10 -20z"/>
<path d="M410 100 c0 -11 5 -20 10 -20 6 0 10 9 10 20 0 11 -4 20 -10 20 -5 0
-10 -9 -10 -20z"/>
<path d="M460 100 c0 -11 5 -20 10 -20 6 0 10 9 10 20 0 11 -4 20 -10 20 -5 0
-10 -9 -10 -20z"/>
<path d="M510 100 c0 -11 5 -20 10 -20 6 0 10 9 10 20 0 11 -4 20 -10 20 -5 0
-10 -9 -10 -20z"/>
</g>
</svg>
